<svg xmlns="http://www.w3.org/2000/svg" width="161" height="147"><path fill-rule="evenodd" fill="#CBDB2A" d="M61.445 109.003a3.118 3.118 0 01-3.119-3.116 3.118 3.118 0 013.119-3.114h18.403a3.117 3.117 0 013.119 3.114 3.118 3.118 0 01-3.119 3.116H61.445zm33.084 11.836a3.117 3.117 0 01-3.119 3.113H30.671a3.117 3.117 0 01-3.12-3.113 3.116 3.116 0 013.12-3.114H91.41a3.116 3.116 0 013.119 3.114zm-74.567-3.118c.82 0 1.625.331 2.205.912.58.58.914 1.384.914 2.202 0 .82-.334 1.623-.914 2.202a3.138 3.138 0 01-2.205.913 3.136 3.136 0 01-2.205-.913 3.13 3.13 0 01-.914-2.202c0-.818.333-1.622.914-2.202a3.135 3.135 0 012.205-.912zm0-14.948h27.476a3.117 3.117 0 013.119 3.114 3.118 3.118 0 01-3.119 3.116H19.962a3.118 3.118 0 01-3.119-3.116 3.117 3.117 0 013.119-3.114zm134.408 6.837l-12.13-12.113-3.852 3.845-.002.005c-.001 0-.003 0-.004.002l-3.852 3.847 24.555 24.518a3.113 3.113 0 01-2.206 5.315 3.111 3.111 0 01-2.205-.912l-7.454-7.442v7.241c0 7.213-5.877 13.081-13.1 13.081H13.1c-7.224 0-13.1-5.869-13.1-13.081V13.077C0 5.865 5.876-.004 13.1-.004h121.02c7.224 0 13.1 5.869 13.1 13.081v29.61a3.117 3.117 0 01-3.119 3.114 3.117 3.117 0 01-3.119-3.114V28.649H6.238v105.267c0 3.779 3.078 6.852 6.862 6.852h121.02c3.784 0 6.862-3.073 6.862-6.852v-13.468l-13.069-13.051a3.11 3.11 0 010-4.404l3.856-3.849-1.867-1.865c-6.359 5.356-14.566 8.587-23.516 8.587-10.627 0-20.208-4.557-26.889-11.814H19.962a3.117 3.117 0 01-3.119-3.115V47.336a3.116 3.116 0 013.119-3.114h59.926c.029 0 .058.003.087.004 6.656-6.961 16.035-11.303 26.412-11.303 20.14 0 36.526 16.361 36.526 36.471 0 8.938-3.237 17.132-8.6 23.481l1.867 1.864 3.854-3.848a3.123 3.123 0 014.411 0l14.336 14.315a3.11 3.11 0 010 4.404 3.125 3.125 0 01-4.411 0zM6.272 22.42h134.709v-9.343c0-3.778-3.078-6.85-6.861-6.85H13.1c-3.784 0-6.862 3.072-6.862 6.85v9.345l.034-.002zm16.809 28.03v37.373h51.796a36.279 36.279 0 01-3.074-6.681 3.091 3.091 0 01-1.305.293 3.118 3.118 0 01-2.773-1.682l-7.324-14.128a3.113 3.113 0 011.336-4.198 3.122 3.122 0 014.204 1.334l3.931 7.581a36.21 36.21 0 015.312-19.892H23.081zm113.594 18.944c0-16.676-13.588-30.243-30.289-30.243-13.815 0-25.498 9.284-29.124 21.929a3.12 3.12 0 012.798 1.681l4.45 8.582 4.088-8.499a3.121 3.121 0 014.162-1.458 3.111 3.111 0 011.461 4.155l-6.795 14.128a3.117 3.117 0 01-2.765 1.764h-.047a3.117 3.117 0 01-2.769-1.68l-5.738-11.068c-.006.235-.009.472-.009.709 0 16.675 13.588 30.244 30.288 30.244 16.701 0 30.289-13.569 30.289-30.244zm-16.276 12.039l-.047.001a3.12 3.12 0 01-2.77-1.681l-4.45-8.584-4.087 8.5a3.118 3.118 0 01-2.765 1.764h-.047a3.119 3.119 0 01-2.77-1.68l-7.324-14.128a3.113 3.113 0 011.336-4.198 3.121 3.121 0 014.204 1.334l4.45 8.582 4.088-8.499a3.12 3.12 0 012.764-1.766 3.137 3.137 0 012.817 1.683l4.45 8.582 4.087-8.499a3.122 3.122 0 014.163-1.458 3.112 3.112 0 011.46 4.155l-6.794 14.129a3.117 3.117 0 01-2.765 1.763zm-68.71-1.765a3.12 3.12 0 01-2.765 1.765h-.047a3.118 3.118 0 01-2.77-1.681l-4.449-8.584-4.088 8.5a3.12 3.12 0 01-5.582.084l-7.324-14.127a3.114 3.114 0 011.337-4.199 3.12 3.12 0 014.203 1.335l4.45 8.582 4.088-8.499a3.122 3.122 0 015.581-.083l4.45 8.582 4.088-8.499a3.121 3.121 0 014.162-1.458 3.11 3.11 0 011.461 4.154l-6.795 14.128zm-33.097-68.46c.821 0 1.625.333 2.205.914a3.13 3.13 0 01.914 2.201c0 .819-.333 1.623-.914 2.202a3.144 3.144 0 01-2.205.912c-.82 0-1.625-.333-2.205-.912a3.138 3.138 0 01-.914-2.202c0-.819.334-1.622.914-2.201a3.139 3.139 0 012.205-.914zm11.463 0c.82 0 1.625.333 2.205.914.58.579.914 1.382.914 2.201 0 .819-.334 1.623-.914 2.202a3.146 3.146 0 01-2.205.912 3.144 3.144 0 01-2.205-.912 3.138 3.138 0 01-.914-2.202c0-.822.334-1.622.914-2.201a3.137 3.137 0 012.205-.914zm11.459 0c.824 0 1.626.333 2.209.914.58.579.911 1.382.91 2.201 0 .819-.33 1.623-.91 2.202a3.155 3.155 0 01-2.209.912c-.82 0-1.622-.333-2.205-.912a3.138 3.138 0 01-.914-2.202c0-.819.334-1.622.914-2.201a3.146 3.146 0 012.205-.914zm22.372 0h64.741a3.117 3.117 0 013.119 3.114 3.117 3.117 0 01-3.119 3.115H63.886a3.118 3.118 0 01-3.119-3.115 3.117 3.117 0 013.119-3.114z"/></svg>