<svg xmlns="http://www.w3.org/2000/svg" width="127" height="127"><path fill-rule="evenodd" fill="#1B1437" d="M85.823 50.404h26.352a2.47 2.47 0 110 4.941H85.823a2.47 2.47 0 010-4.941zm0-11.86h26.352a2.473 2.473 0 010 4.944H85.823a2.471 2.471 0 010-4.944zM11.881 60.286c0-11.989 9.752-21.742 21.74-21.742 11.988 0 21.741 9.753 21.741 21.742 0 11.988-9.753 21.739-21.741 21.739s-21.74-9.751-21.74-21.739zm24.211-16.617v14.146h14.145c-1.079-7.29-6.856-13.068-14.145-14.146zm14.145 19.086H39.585l7.527 7.527a16.708 16.708 0 003.125-7.527zm-18.363-.723a2.459 2.459 0 01-.723-1.746V43.669c-8.096 1.199-14.329 8.193-14.329 16.617 0 9.262 7.536 16.799 16.799 16.799 3.743 0 7.202-1.232 9.998-3.307L31.874 62.032zm87.219 45.193h-2.541l3.692 6.394a2.473 2.473 0 01-.904 3.376l-16.739 9.662a2.468 2.468 0 01-3.374-.902l-8.68-15.034-4.953 2.876a2.472 2.472 0 01-3.711-2.136v-32.4h-4.295c-4.632 0-8.399-3.768-8.399-8.401 0-4.631 3.767-8.399 8.399-8.399h28.658c4.631 0 8.4 3.768 8.4 8.399 0 4.633-3.769 8.401-8.4 8.401H93.573l22.214 12.826a2.47 2.47 0 01-.007 4.282l-4.217 2.417 2.136 3.698h5.394a2.474 2.474 0 002.47-2.472V27.18H4.956v72.632a2.473 2.473 0 002.47 2.472h54.693a2.47 2.47 0 110 4.941H7.426c-4.087 0-7.411-3.324-7.411-7.413v-91.9C.015 3.823 3.339.5 7.426.5h111.667c4.087 0 7.411 3.323 7.411 7.412v91.9c0 4.089-3.324 7.413-7.411 7.413zm-12.847-33.104a3.464 3.464 0 003.459-3.461 3.462 3.462 0 00-3.459-3.457H77.588a3.461 3.461 0 00-3.458 3.457 3.464 3.464 0 003.458 3.461h28.658zm-.201 24.789a2.472 2.472 0 01.912-3.379l2.64-1.514-22.773-13.148v26.299l3.382-1.965a2.457 2.457 0 011.877-.251 2.467 2.467 0 011.504 1.15l8.683 15.042 12.46-7.193-8.685-15.041zm15.518-90.998a2.475 2.475 0 00-2.47-2.473H7.426a2.473 2.473 0 00-2.47 2.473v14.327h116.607V7.912zM17.308 11.37c.65 0 1.287.264 1.747.722.459.46.724 1.099.724 1.748s-.265 1.286-.724 1.747a2.492 2.492 0 01-1.747.723 2.494 2.494 0 01-1.747-.723 2.495 2.495 0 01-.723-1.747c0-.649.264-1.288.723-1.748a2.497 2.497 0 011.747-.722zm13.259 0c.65 0 1.287.264 1.746.722.461.46.724 1.099.724 1.748s-.263 1.286-.724 1.747a2.491 2.491 0 01-1.746.723c-.65 0-1.287-.264-1.746-.723a2.484 2.484 0 01-.725-1.747c0-.649.263-1.288.725-1.748a2.487 2.487 0 011.746-.722zm21.946 0h58.18a2.47 2.47 0 110 4.94h-58.18a2.47 2.47 0 110-4.94zm19.146 39.034h3.047a2.47 2.47 0 110 4.941h-3.047a2.471 2.471 0 010-4.941zm0-11.86h3.047a2.472 2.472 0 010 4.944h-3.047a2.472 2.472 0 010-4.944zm1.576 63.74c.652 0 1.287.265 1.747.725.459.458.724 1.095.724 1.745 0 .65-.265 1.287-.724 1.747a2.48 2.48 0 01-1.747.724 2.486 2.486 0 01-1.747-.724 2.492 2.492 0 01-.723-1.747c0-.65.264-1.287.723-1.745a2.491 2.491 0 011.747-.725z"/></svg>