<svg xmlns="http://www.w3.org/2000/svg" width="128" height="117"><path fill-rule="evenodd" fill="#1B1437" d="M49.429 86.675a2.464 2.464 0 110-4.925h14.548a2.464 2.464 0 110 4.925H49.429zm26.154 9.356a2.465 2.465 0 01-2.466 2.463H25.099a2.464 2.464 0 01-2.465-2.463 2.463 2.463 0 012.465-2.46h48.019a2.463 2.463 0 012.465 2.46zm-57.206-1.742c.458.459.722 1.094.722 1.74 0 .649-.264 1.284-.722 1.742a2.487 2.487 0 01-1.744.721 2.487 2.487 0 01-1.743-.721 2.477 2.477 0 01-.722-1.742c0-.646.263-1.281.722-1.74a2.478 2.478 0 011.743-.721c.649 0 1.285.261 1.744.721zM16.633 81.75h21.722a2.464 2.464 0 110 4.925H16.633a2.463 2.463 0 110-4.925zm106.258 5.403l-9.589-9.575-3.045 3.041-.002.004-.003.002-3.045 3.04 19.412 19.382a2.461 2.461 0 01-1.744 4.202 2.46 2.46 0 01-1.744-.72l-5.892-5.882v5.724c0 5.702-4.646 10.341-10.356 10.341H11.209c-5.711 0-10.357-4.639-10.357-10.341v-95.53C.852 5.138 5.498.499 11.209.499h95.674c5.71 0 10.356 4.639 10.356 10.342V34.25a2.464 2.464 0 01-2.466 2.461 2.465 2.465 0 01-2.466-2.461V23.151H5.811l-.027-.001v83.221c0 2.986 2.434 5.417 5.425 5.417h95.674a5.427 5.427 0 005.424-5.417V95.723l-10.331-10.317a2.46 2.46 0 010-3.481l3.048-3.044-1.476-1.474a28.771 28.771 0 01-18.591 6.789c-8.401 0-15.975-3.602-21.257-9.341H16.633a2.463 2.463 0 01-2.465-2.462V37.925a2.463 2.463 0 012.465-2.462h47.376l.069.001c5.261-5.5 12.677-8.935 20.88-8.935 15.922 0 28.876 12.935 28.876 28.834a28.669 28.669 0 01-6.799 18.561l1.476 1.476 3.047-3.044a2.47 2.47 0 013.487 0l11.334 11.317a2.457 2.457 0 010 3.48 2.465 2.465 0 01-3.488 0zM5.811 18.226h106.496v-7.385c0-2.987-2.434-5.418-5.425-5.418H11.209a5.428 5.428 0 00-5.425 5.418v7.385h.027zm13.288 22.16V69.93h40.948a28.544 28.544 0 01-2.429-5.28 2.483 2.483 0 01-1.033.231 2.469 2.469 0 01-2.192-1.329l-5.79-11.17a2.46 2.46 0 011.056-3.318 2.467 2.467 0 013.324 1.055l3.107 5.992a28.635 28.635 0 014.2-15.725H19.099zm89.803 14.977c0-13.184-10.742-23.91-23.945-23.91-10.921 0-20.158 7.338-23.024 17.337a2.462 2.462 0 012.212 1.329l3.518 6.785 3.231-6.72a2.47 2.47 0 013.291-1.154 2.461 2.461 0 011.155 3.285l-5.372 11.169a2.468 2.468 0 01-2.186 1.397h-.037c-.92 0-1.765-.511-2.189-1.331l-4.536-8.749c-.005.187-.008.373-.008.562 0 13.182 10.742 23.908 23.945 23.908s23.945-10.726 23.945-23.908zm-12.867 9.518h-.037a2.465 2.465 0 01-2.19-1.329l-3.517-6.787-3.232 6.719a2.468 2.468 0 01-2.186 1.397h-.037a2.467 2.467 0 01-2.19-1.33l-5.79-11.169a2.46 2.46 0 011.056-3.318 2.468 2.468 0 013.324 1.054l3.518 6.786 3.231-6.72a2.464 2.464 0 012.186-1.396 2.48 2.48 0 012.227 1.33l3.518 6.786 3.231-6.72a2.47 2.47 0 013.291-1.154 2.462 2.462 0 011.154 3.286l-5.371 11.168a2.466 2.466 0 01-2.186 1.397zm-54.319-1.397a2.472 2.472 0 01-2.186 1.397h-.037a2.465 2.465 0 01-2.19-1.331l-3.518-6.785-3.231 6.719a2.472 2.472 0 01-2.186 1.397 2.473 2.473 0 01-2.227-1.331l-5.79-11.168a2.466 2.466 0 014.38-2.264l3.518 6.786 3.231-6.72a2.464 2.464 0 012.186-1.396 2.459 2.459 0 012.227 1.331l3.518 6.785 3.231-6.72a2.47 2.47 0 013.291-1.154 2.461 2.461 0 011.155 3.285l-5.372 11.169zM15.551 9.363a2.49 2.49 0 011.743.72c.459.459.723 1.095.723 1.742 0 .648-.264 1.284-.723 1.74a2.482 2.482 0 01-1.743.721 2.479 2.479 0 01-1.743-.721 2.472 2.472 0 01-.723-1.74c0-.647.264-1.283.723-1.742a2.486 2.486 0 011.743-.72zm9.062 0a2.49 2.49 0 011.743.72c.459.459.723 1.095.723 1.742 0 .648-.264 1.284-.723 1.74a2.482 2.482 0 01-1.743.721 2.483 2.483 0 01-1.744-.721 2.475 2.475 0 01-.722-1.74c0-.65.264-1.283.722-1.742a2.49 2.49 0 011.744-.72zm9.059 0c.651 0 1.285.263 1.746.72a2.469 2.469 0 010 3.482 2.488 2.488 0 01-1.746.721 2.486 2.486 0 01-1.743-.721 2.472 2.472 0 01-.723-1.74c0-.647.265-1.283.723-1.742a2.493 2.493 0 011.743-.72zm17.686-.001h51.182a2.464 2.464 0 012.466 2.462 2.464 2.464 0 01-2.466 2.462H51.358a2.464 2.464 0 01-2.466-2.462 2.465 2.465 0 012.466-2.462z"/></svg>