<svg 
 xmlns="http://www.w3.org/2000/svg"
 xmlns:xlink="http://www.w3.org/1999/xlink"
 >
<path fill-rule="evenodd"  fill="rgb(176, 110, 171)"
 d="M0.568,0.276 L0.568,213.125 L161.940,213.125 L161.940,220.130 C161.940,221.858 163.248,223.212 164.918,223.212 C165.457,223.212 166.003,223.067 166.498,222.789 L184.307,212.788 C185.316,212.222 185.919,211.234 185.919,210.145 C185.919,209.056 185.316,208.069 184.308,207.501 L166.497,197.501 C166.003,197.222 165.457,197.076 164.918,197.076 C163.248,197.076 161.940,198.431 161.940,200.161 L161.940,208.018 L5.687,208.018 L5.687,5.384 L208.757,5.384 L208.757,164.240 L213.876,164.240 L213.876,0.276 L0.568,0.276 ZM167.059,203.677 L178.577,210.145 L167.059,216.613 L167.059,203.677 Z"/>
</svg>