<svg xmlns="http://www.w3.org/2000/svg" width="127" height="125"><path fill-rule="evenodd" fill="#1B1437" d="M126.77 7.235c-1.066 21.634-11.557 41.657-28.784 54.934l-5.748 4.429v13.496c0 11.207-4.393 21.743-12.371 29.667l-14.571 14.474a2.486 2.486 0 01-2.644.557 2.467 2.467 0 01-1.587-2.173l-1.591-30.764-1.691 1.303c-.444.343-.98.516-1.52.516-.406 0-.814-.098-1.185-.299a59.408 59.408 0 01-2.173-1.238c-1.197.978-2.479 2.042-3.731 3.079-1.757 1.455-3.574 2.96-5.149 4.232a2.498 2.498 0 01-2.624.314 32.525 32.525 0 01-9.202-6.446 32.32 32.32 0 01-6.304-8.957 2.454 2.454 0 01.346-2.642l7.314-8.623a57.788 57.788 0 01-1.518-2.606 2.45 2.45 0 01.253-2.73l1.258-1.538-30.843-1.574a2.481 2.481 0 01-2.188-1.577 2.454 2.454 0 01.562-2.626l14.57-14.473c7.978-7.923 18.585-12.287 29.868-12.287l.072.001 14.226.414 5.436-6.649C78.333 11.453 97.712 1.525 118.42.212l2.309-.148a5.778 5.778 0 014.396 1.631 5.688 5.688 0 011.704 4.342l-.059 1.198zM65.734 116.832l10.626-10.554c7.041-6.994 10.918-16.291 10.918-26.184v-9.67L64.251 88.173l1.483 28.659zM31.092 83.646a27.219 27.219 0 004.629 6.199 27.4 27.4 0 006.421 4.767c1.232-1.005 2.559-2.107 3.854-3.18.862-.713 1.738-1.44 2.594-2.146a57.08 57.08 0 01-6.829-5.831l-.002-.001-.002-.003-.004-.003a57.263 57.263 0 01-5.306-6.117l-5.355 6.315zM45.481 38.61c-9.944.008-19.292 3.86-26.324 10.844L8.531 60.009l28.89 1.475 18.457-22.571-10.397-.303zm76.163-33.406a.786.786 0 00-.599-.221l-2.309.146C99.405 6.355 81.314 15.623 69.102 30.556L37.206 69.56a52.112 52.112 0 006.359 8.616l13.103-13.015a2.493 2.493 0 013.507 0 2.452 2.452 0 010 3.485L47.06 81.672a52.528 52.528 0 008.985 6.588l38.901-29.985c16.081-12.394 25.875-31.085 26.871-51.282l.059-1.197a.77.77 0 00-.232-.592zM91.327 46.547a10.557 10.557 0 01-7.465-3.067c-4.116-4.087-4.116-10.741 0-14.83a10.526 10.526 0 017.465-3.071c2.82 0 5.471 1.091 7.465 3.071 4.116 4.089 4.116 10.743 0 14.83a10.563 10.563 0 01-7.465 3.067zm3.957-14.411a5.574 5.574 0 00-3.957-1.629c-1.495 0-2.9.578-3.957 1.629a5.537 5.537 0 000 7.861c2.181 2.167 5.732 2.167 7.914 0a5.538 5.538 0 000-7.861zm-28.973 30.21a2.47 2.47 0 01-2.48-2.463c0-1.36 1.11-2.463 2.48-2.463 1.37 0 2.48 1.103 2.48 2.463a2.47 2.47 0 01-2.48 2.463zM2.833 120.023a2.477 2.477 0 012.485 2.469 2.476 2.476 0 01-2.485 2.469 2.476 2.476 0 01-2.485-2.469 2.477 2.477 0 012.485-2.469zM15.829 96.28l5.933-2.935a2.487 2.487 0 013.325 1.109 2.454 2.454 0 01-1.114 3.302l-5.933 2.935a8.13 8.13 0 00-4.501 6.697l-.235 3.415c-.04.575.25.956.427 1.13.177.176.559.464 1.139.425l3.436-.234a8.189 8.189 0 006.744-4.471l2.954-5.893a2.487 2.487 0 013.326-1.106 2.454 2.454 0 011.114 3.302l-2.954 5.893c-2.066 4.122-6.221 6.878-10.845 7.191l-3.436.235a6.447 6.447 0 01-4.986-1.858 6.36 6.36 0 01-1.868-4.951l.235-3.413c.317-4.593 3.09-8.72 7.239-10.773z"/></svg>