<svg xmlns="http://www.w3.org/2000/svg" width="160" height="147"><path fill-rule="evenodd" fill="#CBDB2A" d="M148.124 79.726a3.16 3.16 0 01-2.21-.912 3.14 3.14 0 01-.915-2.203c0-.819.334-1.623.915-2.201a3.153 3.153 0 012.21-.914c.821 0 1.628.334 2.209.914.581.578.915 1.382.915 2.201a3.14 3.14 0 01-.915 2.203 3.16 3.16 0 01-2.209.912zm8.749-48.123h-5.625v30.993a3.119 3.119 0 01-3.124 3.115 3.12 3.12 0 01-3.125-3.115V28.488a3.12 3.12 0 013.125-3.114h1.206l-12.456-12.412-12.456 12.412h1.206a3.12 3.12 0 013.125 3.114v112.28h16.25V90.626a3.12 3.12 0 013.125-3.115 3.12 3.12 0 013.124 3.115v50.142h5.625a3.12 3.12 0 013.125 3.114 3.12 3.12 0 01-3.125 3.115H3.125A3.12 3.12 0 010 143.882V3.112A3.12 3.12 0 013.125-.004 3.12 3.12 0 016.25 3.112v137.656h7.5v-19.309a3.12 3.12 0 013.125-3.115h22.5a3.12 3.12 0 013.125 3.115v19.309h7.499v-38.931a3.12 3.12 0 013.125-3.113h22.5a3.12 3.12 0 013.125 3.113v38.931h7.5v-86.58a3.12 3.12 0 013.125-3.115h22.5a3.12 3.12 0 013.125 3.115v86.58h7.5V31.603h-5.625a3.122 3.122 0 01-2.887-1.922 3.108 3.108 0 01.677-3.394l20-19.932a3.132 3.132 0 014.419 0l20 19.932a3.107 3.107 0 01.677 3.394 3.123 3.123 0 01-2.887 1.922zM36.25 124.573H20v16.195h16.25v-16.195zm36.249-19.62h-16.25v35.815h16.25v-35.815zm36.25-47.651h-16.25v83.466h16.25V57.302zm8.125-45.631h-3.125a3.12 3.12 0 01-3.125-3.115 3.12 3.12 0 013.125-3.115h3.125a3.12 3.12 0 013.125 3.115 3.12 3.12 0 01-3.125 3.115zm-17.187 0h-5.86a3.12 3.12 0 01-3.125-3.115 3.12 3.12 0 013.125-3.115h5.86a3.12 3.12 0 013.124 3.115 3.12 3.12 0 01-3.124 3.115zm-26.01 39.402h3.125a3.12 3.12 0 013.125 3.115 3.12 3.12 0 01-3.125 3.114h-3.125a3.12 3.12 0 01-3.125-3.114 3.12 3.12 0 013.125-3.115zm6.088-39.402h-5.86a3.12 3.12 0 01-3.124-3.115 3.12 3.12 0 013.124-3.115h5.86a3.12 3.12 0 013.125 3.115 3.12 3.12 0 01-3.125 3.115zM53.84 51.073h5.835a3.12 3.12 0 013.125 3.115 3.12 3.12 0 01-3.125 3.114H53.84a3.12 3.12 0 01-3.125-3.114 3.12 3.12 0 013.125-3.115zm6.003-39.402h-5.859a3.12 3.12 0 01-3.125-3.115 3.12 3.12 0 013.125-3.115h5.859a3.12 3.12 0 013.125 3.115 3.12 3.12 0 01-3.125 3.115zm-19.922 0h-5.859a3.12 3.12 0 01-3.125-3.115 3.12 3.12 0 013.125-3.115h5.859a3.12 3.12 0 013.125 3.115 3.12 3.12 0 01-3.125 3.115zm-1.275 85.034a3.12 3.12 0 013.125 3.113 3.12 3.12 0 01-3.125 3.114h-3.125a3.12 3.12 0 01-3.125-3.114 3.12 3.12 0 013.125-3.113h3.125zm-7.769-42.517a3.12 3.12 0 013.125-3.115h5.835a3.12 3.12 0 013.125 3.115 3.12 3.12 0 01-3.125 3.114h-5.835a3.12 3.12 0 01-3.125-3.114zM20 102.932h-3.125a3.12 3.12 0 01-3.125-3.114 3.12 3.12 0 013.125-3.113H20a3.12 3.12 0 013.125 3.113A3.12 3.12 0 0120 102.932zm0-45.63h-3.125a3.12 3.12 0 01-3.125-3.114 3.12 3.12 0 013.125-3.115H20a3.12 3.12 0 013.125 3.115A3.12 3.12 0 0120 57.302zm0-45.631h-3.125a3.12 3.12 0 01-3.125-3.115 3.12 3.12 0 013.125-3.115H20a3.12 3.12 0 013.125 3.115A3.12 3.12 0 0120 11.671z"/></svg>