<svg xmlns="http://www.w3.org/2000/svg" width="127" height="117"><path fill-rule="evenodd" fill="#1B1437" d="M117.44 63.53a2.49 2.49 0 01-1.747-.722 2.475 2.475 0 01-.724-1.74c0-.648.265-1.283.724-1.74a2.49 2.49 0 011.747-.723c.649 0 1.287.264 1.747.723.459.457.723 1.092.723 1.74 0 .648-.264 1.283-.723 1.74a2.493 2.493 0 01-1.747.722zm6.917-38.045h-4.447v24.502a2.464 2.464 0 01-2.47 2.461 2.465 2.465 0 01-2.471-2.461V23.024a2.466 2.466 0 012.471-2.462h.953l-9.847-9.813-9.847 9.813h.953a2.466 2.466 0 012.471 2.462v88.764h12.846V72.147a2.466 2.466 0 012.471-2.462 2.466 2.466 0 012.47 2.462v39.641h4.447a2.466 2.466 0 012.471 2.462 2.467 2.467 0 01-2.471 2.462H2.81a2.467 2.467 0 01-2.471-2.462V2.961A2.466 2.466 0 012.81.5a2.466 2.466 0 012.47 2.461v108.827h5.929V96.523a2.467 2.467 0 012.471-2.463h17.787a2.467 2.467 0 012.471 2.463v15.265h5.929V81.011a2.466 2.466 0 012.47-2.462h17.788a2.466 2.466 0 012.47 2.462v30.777h5.929V43.34a2.466 2.466 0 012.471-2.462h17.787a2.466 2.466 0 012.471 2.462v68.448h5.929V25.485h-4.447a2.46 2.46 0 01-1.747-4.203l15.811-15.757a2.48 2.48 0 013.494 0l15.811 15.757a2.459 2.459 0 01-1.747 4.203zm-95.36 73.5H16.15v12.803h12.847V98.985zm28.657-15.512H44.808v28.315h12.846V83.473zm28.658-37.671H73.465v65.986h12.847V45.802zm6.423-36.074h-2.47a2.466 2.466 0 01-2.471-2.462 2.467 2.467 0 012.471-2.462h2.47a2.467 2.467 0 012.471 2.462 2.466 2.466 0 01-2.471 2.462zm-13.588 0h-4.632a2.466 2.466 0 01-2.47-2.462 2.467 2.467 0 012.47-2.462h4.632a2.467 2.467 0 012.471 2.462 2.466 2.466 0 01-2.471 2.462zm-20.562 31.15h2.471a2.465 2.465 0 012.47 2.462 2.465 2.465 0 01-2.47 2.462h-2.471a2.466 2.466 0 01-2.47-2.462 2.466 2.466 0 012.47-2.462zm4.813-31.15h-4.632a2.465 2.465 0 01-2.47-2.462 2.467 2.467 0 012.47-2.462h4.632a2.467 2.467 0 012.471 2.462 2.466 2.466 0 01-2.471 2.462zm-20.495 31.15h4.613a2.466 2.466 0 012.47 2.462 2.466 2.466 0 01-2.47 2.462h-4.613a2.466 2.466 0 01-2.471-2.462 2.466 2.466 0 012.471-2.462zm4.746-31.15h-4.632a2.466 2.466 0 01-2.471-2.462 2.467 2.467 0 012.471-2.462h4.632a2.467 2.467 0 012.47 2.462 2.466 2.466 0 01-2.47 2.462zm-15.75 0h-4.632a2.466 2.466 0 01-2.47-2.462 2.467 2.467 0 012.47-2.462h4.632a2.467 2.467 0 012.471 2.462 2.466 2.466 0 01-2.471 2.462zm-1.008 67.224a2.466 2.466 0 012.471 2.463 2.467 2.467 0 01-2.471 2.462h-2.47a2.467 2.467 0 01-2.471-2.462 2.466 2.466 0 012.471-2.463h2.47zM24.75 43.34a2.466 2.466 0 012.47-2.462h4.613a2.466 2.466 0 012.47 2.462 2.466 2.466 0 01-2.47 2.462H27.22a2.466 2.466 0 01-2.47-2.462zm-8.6 38.537h-2.47a2.467 2.467 0 01-2.471-2.462 2.466 2.466 0 012.471-2.463h2.47a2.466 2.466 0 012.471 2.463 2.467 2.467 0 01-2.471 2.462zm0-36.075h-2.47a2.466 2.466 0 01-2.471-2.462 2.466 2.466 0 012.471-2.462h2.47a2.466 2.466 0 012.471 2.462 2.466 2.466 0 01-2.471 2.462zm0-36.074h-2.47a2.466 2.466 0 01-2.471-2.462 2.467 2.467 0 012.471-2.462h2.47a2.467 2.467 0 012.471 2.462 2.466 2.466 0 01-2.471 2.462z"/></svg>