<svg xmlns="http://www.w3.org/2000/svg" width="127" height="127"><path fill-rule="evenodd" fill="#1B1437" d="M85.802 50.404h26.352a2.47 2.47 0 110 4.941H85.802a2.471 2.471 0 010-4.941zm0-11.86h26.352a2.472 2.472 0 010 4.944H85.802a2.472 2.472 0 010-4.944zM11.859 60.286c0-11.989 9.753-21.742 21.741-21.742 11.987 0 21.74 9.753 21.74 21.742 0 11.988-9.753 21.739-21.74 21.739-11.988 0-21.741-9.751-21.741-21.739zM36.07 43.669v14.146h14.146c-1.079-7.29-6.857-13.068-14.146-14.146zm14.146 19.086H39.564l7.527 7.527a16.708 16.708 0 003.125-7.527zm-18.363-.723a2.456 2.456 0 01-.724-1.746V43.669C23.033 44.868 16.8 51.862 16.8 60.286c0 9.262 7.536 16.799 16.8 16.799a16.72 16.72 0 009.997-3.307L31.853 62.032zm87.218 45.193h-2.541l3.693 6.394a2.47 2.47 0 01-.905 3.376l-16.738 9.662a2.468 2.468 0 01-3.375-.902l-8.68-15.034-4.952 2.876a2.474 2.474 0 01-3.712-2.136v-32.4h-4.294c-4.632 0-8.4-3.768-8.4-8.401 0-4.631 3.768-8.399 8.4-8.399h28.658c4.631 0 8.399 3.768 8.399 8.399 0 4.633-3.768 8.401-8.399 8.401H93.552l22.213 12.826a2.47 2.47 0 01-.007 4.282l-4.216 2.417 2.136 3.698h5.393a2.475 2.475 0 002.471-2.472V27.18H4.934v72.632a2.474 2.474 0 002.471 2.472h54.692a2.47 2.47 0 110 4.941H7.405c-4.087 0-7.412-3.324-7.412-7.413v-91.9C-.007 3.823 3.318.5 7.405.5h111.666c4.087 0 7.412 3.323 7.412 7.412v91.9c0 4.089-3.325 7.413-7.412 7.413zm-12.846-33.104a3.464 3.464 0 003.458-3.461 3.461 3.461 0 00-3.458-3.457H77.567a3.462 3.462 0 00-3.459 3.457 3.464 3.464 0 003.459 3.461h28.658zm-.201 24.789a2.471 2.471 0 01.912-3.379l2.639-1.514-22.773-13.148v26.299l3.383-1.965a2.454 2.454 0 011.877-.251 2.465 2.465 0 011.503 1.15l8.684 15.042 12.459-7.193-8.684-15.041zm15.518-90.998a2.475 2.475 0 00-2.471-2.473H7.405a2.474 2.474 0 00-2.471 2.473v14.327h116.608V7.912zM17.287 11.37c.649 0 1.287.264 1.746.722.46.46.724 1.099.724 1.748s-.264 1.286-.724 1.747a2.49 2.49 0 01-1.746.723 2.49 2.49 0 01-1.747-.723 2.496 2.496 0 01-.724-1.747c0-.649.265-1.288.724-1.748a2.493 2.493 0 011.747-.722zm13.258 0c.651 0 1.288.264 1.747.722.46.46.724 1.099.724 1.748s-.264 1.286-.724 1.747a2.492 2.492 0 01-1.747.723 2.487 2.487 0 01-1.745-.723 2.48 2.48 0 01-.725-1.747c0-.649.262-1.288.725-1.748a2.487 2.487 0 011.745-.722zm21.946 0h58.181a2.47 2.47 0 010 4.94H52.491a2.47 2.47 0 110-4.94zm19.147 39.034h3.046a2.47 2.47 0 110 4.941h-3.046a2.471 2.471 0 010-4.941zm0-11.86h3.046a2.473 2.473 0 010 4.944h-3.046a2.472 2.472 0 010-4.944zm1.576 63.74c.652 0 1.287.265 1.746.725a2.48 2.48 0 01.724 1.745c0 .65-.264 1.287-.724 1.747a2.477 2.477 0 01-1.746.724c-.65 0-1.288-.263-1.747-.724a2.488 2.488 0 01-.724-1.747c0-.65.264-1.287.724-1.745a2.488 2.488 0 011.747-.725z"/></svg>