<svg xmlns="http://www.w3.org/2000/svg" width="43" height="44"><path fill-rule="evenodd" fill="#1B1437" d="M40.447 36.201H27.764a2.116 2.116 0 01-2.113-2.113v-.705h-2.114a.704.704 0 01-.498-1.203l2.612-2.612v-3.936a2.115 2.115 0 012.113-2.113h12.683a2.116 2.116 0 012.114 2.113v8.456a2.116 2.116 0 01-2.114 2.113zm.704-10.569a.704.704 0 00-.704-.704H27.764a.704.704 0 00-.704.704v4.228a.7.7 0 01-.207.498l-1.615 1.616h1.117c.389 0 .705.315.705.705v1.409c0 .389.315.704.704.704h12.683a.704.704 0 00.704-.704v-8.456zm-12.682 6.342h11.273v1.409H28.469v-1.409zm0-2.818h11.273v1.409H28.469v-1.409zm8.455-2.819h2.818v1.41h-2.818v-1.41zm-8.455 0h7.046v1.41h-7.046v-1.41zM42.255 7.206a7.527 7.527 0 01-3.922 2.084v10.001a2.117 2.117 0 01-2.114 2.114h-9.608l-4.032 3.36a.705.705 0 01-1.156-.542v-2.818h-4.227a2.117 2.117 0 01-2.114-2.114V6.609a2.117 2.117 0 012.114-2.114h5.237l.883-1.47A4.251 4.251 0 0126.941.972h14.915c.389 0 .705.316.705.706v4.931a.705.705 0 01-.207.498l-.099.099zM16.491 19.291a.707.707 0 00.705.705h4.932c.389 0 .704.315.704.705v2.018l3.072-2.56a.707.707 0 01.451-.163h9.864a.706.706 0 00.705-.705v-.327l-3.574-2.382-3.861 1.931a.708.708 0 01-.706-.045l-5.971-3.98-6.321 3.793v1.01zm.705-13.387a.707.707 0 00-.705.705v10.029l5.979-3.587a.702.702 0 01.753.018l6.001 4.001 3.862-1.932a.706.706 0 01.706.045l3.132 2.087V9.426l-.031.001a7.562 7.562 0 01-4.106-1.208l-3.455 3.455a2.448 2.448 0 01-3.462-3.462l2.307-2.308H17.196zm23.955-3.523h-14.21a2.832 2.832 0 00-2.417 1.369l-.447.745h5.509l1.203-1.203.997.997-1.41 1.409-3.51 3.51a1.039 1.039 0 101.47 1.47l3.862-3.862a.706.706 0 01.889-.089l.381.254a6.173 6.173 0 007.683-.667V2.381zm-20.785 9.864a2.465 2.465 0 11-.001-4.93 2.465 2.465 0 01.001 4.93zm0-3.522a1.056 1.056 0 10-.001 2.113 1.056 1.056 0 00.001-2.113zM5.218 19.996h8.455v1.409H5.218v-1.409zm5.636-1.409v-1.409h1.409v1.409h-1.409zm-2.818 0v-1.409h1.409v1.409H8.036zm-4.228-.705v4.228H2.399v-4.228a3.528 3.528 0 013.523-3.523h7.751v1.409H5.922a2.117 2.117 0 00-2.114 2.114zm2.819.705H5.218v-1.409h1.409v1.409zm8.455 4.932a2.116 2.116 0 012.114 2.113v1.823l2.612 2.611a.705.705 0 01-.499 1.204h-2.113v2.818a2.116 2.116 0 01-2.114 2.113H2.399a2.116 2.116 0 01-2.113-2.113v-8.456a2.115 2.115 0 012.113-2.113h12.683zM1.695 25.632v8.456c0 .389.315.704.704.704h12.683a.704.704 0 00.704-.704v-3.523c0-.389.316-.705.705-.705h1.117l-1.615-1.615a.707.707 0 01-.207-.498v-2.115a.704.704 0 00-.704-.704H2.399a.704.704 0 00-.704.704zm2.818 2.115H3.104v-1.41h1.409v1.41zm0 2.818H3.104v-1.409h1.409v1.409zm0 2.818H3.104v-1.409h1.409v1.409zm9.864-5.636H5.922v-1.41h8.455v1.41zm0 2.818H5.922v-1.409h8.455v1.409zm0 2.818H5.922v-1.409h8.455v1.409zM.99 37.61h12.391a3.096 3.096 0 012.199.911c.318.32.751.5 1.203.498h3.644c.451.002.884-.178 1.202-.498a3.096 3.096 0 012.2-.911h12.39c.39 0 .705.316.705.706v2.112a2.823 2.823 0 01-2.818 2.82H3.104a2.821 2.821 0 01-2.818-2.82v-2.112c0-.39.315-.706.704-.706zm.705 2.818a1.41 1.41 0 001.409 1.41h31.002a1.41 1.41 0 001.409-1.41v-1.409H23.829a1.69 1.69 0 00-1.203.499 3.087 3.087 0 01-2.199.91h-3.644a3.087 3.087 0 01-2.199-.91c-.319-.32-.752-.5-1.203-.499H1.695v1.409z"/></svg>