<svg xmlns="http://www.w3.org/2000/svg" width="37.75" height="37.75"><path fill-rule="evenodd" stroke="#FFF" stroke-width=".5" fill="#1B1437" d="M25.132 22.846a7.562 7.562 0 01-10.718 0 1.523 1.523 0 010-2.15 1.513 1.513 0 012.144 0 4.538 4.538 0 006.431 0l9.432-9.46a4.569 4.569 0 000-6.449 4.54 4.54 0 00-6.432 0l-5.144 5.158a1.51 1.51 0 01-2.144 0 1.522 1.522 0 010-2.149l5.144-5.161a7.567 7.567 0 0110.72.001 7.617 7.617 0 010 10.75l-9.433 9.46zm-3.215-5.375a1.51 1.51 0 01-2.144 0 4.54 4.54 0 00-6.431 0l-8.576 8.602a4.571 4.571 0 00.001 6.45 4.536 4.536 0 006.431 0l4.288-4.301a1.513 1.513 0 012.144 0 1.523 1.523 0 010 2.15l-4.288 4.3a7.56 7.56 0 01-10.719 0 7.616 7.616 0 010-10.749l8.575-8.601a7.561 7.561 0 0110.719 0 1.522 1.522 0 010 2.149zM12.53 8.012a1.519 1.519 0 01-1.516-1.522V1.93c0-.84.679-1.52 1.516-1.52s1.516.68 1.516 1.52v4.56c0 .841-.679 1.522-1.516 1.522zm-1.958 2.597a1.514 1.514 0 01-2.144 0L3.877 6.045a1.525 1.525 0 010-2.151 1.513 1.513 0 012.144 0l4.551 4.565a1.523 1.523 0 010 2.15zm-2.59 1.964a1.52 1.52 0 01-1.516 1.521H1.918a1.52 1.52 0 01-1.516-1.521c0-.84.679-1.52 1.516-1.52h4.548c.837 0 1.516.68 1.516 1.52zm16.676 16.724c.837 0 1.516.682 1.515 1.521v4.562c0 .839-.678 1.52-1.515 1.52a1.518 1.518 0 01-1.516-1.52v-4.562c0-.839.678-1.521 1.516-1.521zm4.104-2.594l4.547 4.56a1.523 1.523 0 010 2.15 1.514 1.514 0 01-2.144 0l-4.547-4.56a1.523 1.523 0 010-2.15 1.513 1.513 0 012.144 0zm.443-1.966c0-.841.679-1.521 1.516-1.521h4.548c.838 0 1.516.68 1.516 1.521 0 .838-.678 1.52-1.516 1.52h-4.548a1.52 1.52 0 01-1.516-1.52z"/></svg>