<svg xmlns="http://www.w3.org/2000/svg" width="44" height="44"><path fill-rule="evenodd" fill="#1B1437" d="M39.318 10.113v13.454c2.506 2.013 4.116 5.097 4.116 8.553 0 6.053-4.924 10.977-10.976 10.977-5.82 0-10.584-4.558-10.941-10.289H.902V5.367H33.83A4.808 4.808 0 0138.632.565a4.808 4.808 0 014.802 4.802 4.804 4.804 0 01-4.116 4.746zm2.744 22.007c0-5.064-3.943-9.214-8.918-9.568v2.744c3.461.346 6.174 3.274 6.174 6.824a6.839 6.839 0 01-.611 2.817l2.379 1.373a9.52 9.52 0 00.976-4.19zm-9.604-5.486a5.494 5.494 0 00-5.488 5.486 5.495 5.495 0 005.488 5.489 5.495 5.495 0 005.488-5.489 5.494 5.494 0 00-5.488-5.486zm0 15.091a9.599 9.599 0 007.949-4.223l-2.389-1.378a6.85 6.85 0 01-5.56 2.858 6.85 6.85 0 01-5.56-2.858l-2.39 1.378a9.6 9.6 0 007.95 4.223zm-8.629-5.415l2.38-1.373a6.823 6.823 0 01-.611-2.817c0-3.55 2.712-6.478 6.174-6.824v-2.744c-4.976.354-8.918 4.504-8.918 9.568 0 1.504.357 2.922.975 4.19zm-.975-9.491v-3.617h-1.372v5.489h.556c.216-.653.487-1.279.816-1.872zm11.178-20.08H2.274v24.696h19.243c.029-.465.08-.925.165-1.372H20.11v-8.232h4.116v3.056c2.013-2.289 4.953-3.742 8.232-3.742 2 0 3.871.547 5.488 1.486V10.114a4.758 4.758 0 01-2.184-.906l-4.197 4.196c.129.268.207.563.207.881a2.061 2.061 0 01-2.058 2.058 2.06 2.06 0 01-2.058-2.058c0-.318.077-.613.206-.882l-1.383-1.383c-.268.13-.564.207-.881.207-.317 0-.613-.077-.882-.206l-3.441 3.441c.129.268.207.564.207.881a2.06 2.06 0 01-2.058 2.058 2.06 2.06 0 01-2.058-2.058 2.06 2.06 0 012.058-2.058c.317 0 .613.077.882.206l3.44-3.44a2.025 2.025 0 01-.206-.882 2.06 2.06 0 012.058-2.058c1.134 0 2.058.924 2.058 2.058 0 .317-.078.614-.206.883l1.382 1.382c.269-.13.565-.207.882-.207.317 0 .613.077.882.207l4.196-4.196a4.788 4.788 0 01-.76-1.499zM30.4 14.285a.687.687 0 00-1.372 0c0 .379.308.687.686.687a.687.687 0 00.686-.687zm-4.116-4.116a.687.687 0 00-1.372 0 .686.686 0 001.372 0zm-6.174 6.174a.686.686 0 10-1.373 0 .686.686 0 001.373 0zM38.632 1.938a3.434 3.434 0 00-3.43 3.429 3.434 3.434 0 003.43 3.431 3.434 3.434 0 003.43-3.431 3.434 3.434 0 00-3.43-3.429zM6.39 16.343h9.604v1.373H6.39v-1.373zm0-2.744h9.604v1.373H6.39v-1.373zm0-2.744h9.604v1.372H6.39v-1.372zm0-2.744h9.604v1.372H6.39V8.111zm-2.744 8.232h1.372v1.373H3.646v-1.373zm0-2.744h1.372v1.373H3.646v-1.373zm0-2.744h1.372v1.372H3.646v-1.372zm0-2.744h1.372v1.372H3.646V8.111zm4.116 21.952H3.646v-6.861h4.116v6.861zM6.39 24.575H5.018v4.116H6.39v-4.116zm6.86 5.488H9.134v-5.488h4.116v5.488zm-1.372-4.116h-1.372v2.744h1.372v-2.744zm6.86 4.116h-4.116V19.087h4.116v10.976zm-1.372-9.603h-1.372v8.231h1.372V20.46zm15.092 15.777a4.12 4.12 0 01-4.116-4.117 4.119 4.119 0 014.116-4.114 4.119 4.119 0 014.116 4.114 4.12 4.12 0 01-4.116 4.117zm0-6.86a2.747 2.747 0 00-2.744 2.743 2.747 2.747 0 002.744 2.745 2.747 2.747 0 002.744-2.745 2.748 2.748 0 00-2.744-2.743z"/></svg>