<svg xmlns="http://www.w3.org/2000/svg" width="44" height="44"><path fill-rule="evenodd" fill="#1B1437" d="M42.364 14.275a.703.703 0 01-.702-.703v-6.32a2.104 2.104 0 00-1.401-1.977v32.173c0 .01-.005.016-.005.025a.691.691 0 01-.043.216c-.006.015-.012.039-.016.047-.005.008-.005.018-.009.025l-2.037 4.066v.536a.702.702 0 11-1.404 0v-.536l-2.033-4.066c-.004-.007-.003-.01-.009-.025-.007-.015-.01-.032-.017-.047a.721.721 0 01-.043-.216c0-.008-.005-.015-.005-.025V3.741a2.809 2.809 0 115.618 0v.071a3.517 3.517 0 012.809 3.44v6.32a.703.703 0 01-.703.703zm-4.915 25.816l.97-1.941h-1.941l.971 1.941zm0-37.754c-.776 0-1.405.628-1.405 1.404h2.809c0-.776-.628-1.404-1.404-1.404zm1.404 2.809h-2.809v10.533h2.809V5.146zm0 11.937h-2.809v19.663h2.809V17.083zm-6.32 25.982H1.635a.702.702 0 01-.702-.702V4.443c0-.388.315-.702.702-.702h6.321V1.634c0-.387.314-.702.702-.702h16.853c.388 0 .702.315.702.702v2.107h6.32c.388 0 .703.314.703.702v37.92a.702.702 0 01-.703.702zM24.809 2.337H9.36v1.404h15.449V2.337zm0 2.809H9.36v2.808h5.738a2.107 2.107 0 013.973 0h5.738V5.146zm7.022 0h-5.618v3.511a.701.701 0 01-.702.701h-7.022a.701.701 0 01-.702-.701.703.703 0 00-1.405 0 .701.701 0 01-.702.701H8.658a.701.701 0 01-.702-.701V5.146H2.338v36.515h29.493V5.146zM7.956 10.764a2.809 2.809 0 11-.002 5.618 2.809 2.809 0 01.002-5.618zm0 4.214a1.406 1.406 0 10-.003-2.811 1.406 1.406 0 00.003 2.811zm0 2.808a2.809 2.809 0 11-.001 5.617 2.809 2.809 0 01.001-5.617zm0 4.213a1.404 1.404 0 100-2.808 1.404 1.404 0 000 2.808zm.036 4.534a7.725 7.725 0 0110.865 1.126l.54-.539a.702.702 0 01.496-.205H22v1.404h-1.816l-.527.526a7.664 7.664 0 01-.009 7.365l.536.536H22v1.404h-2.107a.698.698 0 01-.5-.204l-.547-.547a7.739 7.739 0 01-1.115 1.127 7.726 7.726 0 01-9.739-11.993zm9.865 9.871l-1.269-1.268.993-.993 1.029 1.029a6.312 6.312 0 00.542-1.938h-5.288l3.616 3.615c.133-.142.257-.292.377-.445zM7.63 36.075a6.318 6.318 0 008.777 1.688l-4.735-4.734a.702.702 0 01.497-1.199h6.983a6.276 6.276 0 00-.547-1.934l-1.027 1.026-.993-.993 1.272-1.272A6.32 6.32 0 007.63 36.075zm18.583-11.267a2.808 2.808 0 11.002 5.616 2.808 2.808 0 01-.002-5.616zm0 4.213a1.405 1.405 0 100-2.81 1.405 1.405 0 000 2.81zm0 5.618a2.808 2.808 0 11.002 5.616 2.808 2.808 0 01-.002-5.616zm0 4.213a1.405 1.405 0 100-2.81 1.405 1.405 0 000 2.81zm2.107-16.15h-7.724a.702.702 0 110-1.405h7.724a.702.702 0 110 1.405zm0-2.809h-2.809a.702.702 0 010-1.405h2.809a.702.702 0 110 1.405zm0-4.214h-5.618a.702.702 0 010-1.404h5.618a.702.702 0 110 1.404zm0-2.808h-9.831a.703.703 0 010-1.405h9.831a.702.702 0 110 1.405zm-15.449 8.426h4.916a.702.702 0 010 1.405h-4.916a.703.703 0 010-1.405zm0-2.809h9.831a.702.702 0 110 1.405h-9.831a.702.702 0 010-1.405zm7.725-3.51a.703.703 0 01-.703.701h-7.022a.702.702 0 010-1.404h7.022c.388 0 .703.314.703.703zm-4.916-2.107h-2.809a.703.703 0 010-1.405h2.809a.702.702 0 110 1.405z"/></svg>