<svg xmlns="http://www.w3.org/2000/svg" width="52" height="52"><path fill-rule="evenodd" fill="#1B1437" d="M51.274 25.873c0 6.718-2.616 13.034-7.366 17.785-4.75 4.749-11.066 7.366-17.783 7.366-1.668 0-3.337-.166-4.959-.49a.981.981 0 11.386-1.926c1.495.3 3.034.45 4.573.45 12.784 0 23.184-10.399 23.184-23.185 0-5.16-1.736-10.197-4.9-14.253-.6.33-1.277.506-1.981.506a4.098 4.098 0 01-2.918-1.21A4.094 4.094 0 0138.302 8a4.1 4.1 0 011.208-2.918 4.101 4.101 0 012.918-1.209 4.1 4.1 0 012.917 1.209 4.132 4.132 0 01.516 5.205 25.194 25.194 0 015.413 15.586zM43.956 6.472a2.144 2.144 0 00-1.528-.634 2.14 2.14 0 00-1.528.634c-.409.408-.634.95-.634 1.528 0 .577.225 1.119.634 1.528.407.409.95.632 1.528.632.577 0 1.12-.223 1.528-.632a2.164 2.164 0 000-3.056zm-2.734 9.622a.983.983 0 01-.288.695l-1.336 1.335a15.397 15.397 0 011.528 3.687h1.898c.542 0 .982.441.982.982v6.143c0 .544-.44.983-.982.983h-1.898a15.34 15.34 0 01-1.528 3.687l1.343 1.343a.981.981 0 010 1.389L36.6 40.683a.986.986 0 01-1.39 0l-1.345-1.345a15.323 15.323 0 01-3.687 1.528v1.905a.981.981 0 01-.982.982h-6.143a.982.982 0 01-.982-.982v-1.905a15.356 15.356 0 01-3.687-1.528l-1.344 1.345a.982.982 0 01-1.39 0l-4.341-4.345a.981.981 0 010-1.389l1.343-1.343a15.34 15.34 0 01-1.528-3.687H9.226a.98.98 0 01-.982-.984l.003-6.142c0-.541.44-.982.983-.982h1.894a15.356 15.356 0 011.528-3.687l-1.336-1.335a.983.983 0 010-1.389l4.345-4.343a.984.984 0 011.389.001l1.334 1.334a15.394 15.394 0 013.687-1.527V8.977c0-.543.44-.982.982-.982h6.143c.543 0 .982.439.982.982v1.887c1.292.348 2.527.86 3.687 1.528l1.334-1.334a.985.985 0 011.39-.001l4.345 4.342a.987.987 0 01.288.695zm-3.56 1.188l1.188-1.188-2.956-2.953-1.186 1.187a.985.985 0 01-1.228.13 13.419 13.419 0 00-4.49-1.86.984.984 0 01-.776-.962V9.96h-4.178v1.677a.984.984 0 01-.776.961c-1.602.343-3.113.97-4.491 1.861a.987.987 0 01-1.228-.13l-1.186-1.188-2.955 2.953 1.187 1.188a.982.982 0 01.131 1.228A13.442 13.442 0 0012.857 23a.982.982 0 01-.961.776h-1.685l-.002 4.179h1.687c.464 0 .863.322.961.775.344 1.601.97 3.113 1.861 4.491.251.389.197.9-.131 1.228l-1.195 1.194 2.953 2.957 1.196-1.197a.984.984 0 011.228-.131 13.449 13.449 0 004.491 1.862.982.982 0 01.776.959v1.696h4.178v-1.696c0-.462.323-.862.776-.959a13.464 13.464 0 004.49-1.862.982.982 0 011.228.131l1.196 1.196 2.953-2.956-1.195-1.194a.983.983 0 01-.13-1.229 13.454 13.454 0 001.861-4.49.98.98 0 01.96-.775h1.688v-4.179h-1.688a.981.981 0 01-.96-.776 13.483 13.483 0 00-1.861-4.49.98.98 0 01.13-1.228zM26.125 33.991c-4.476 0-8.117-3.641-8.117-8.118 0-4.475 3.641-8.117 8.117-8.117 4.476 0 8.117 3.642 8.117 8.117 0 4.477-3.641 8.118-8.117 8.118zm0-14.269a6.159 6.159 0 00-6.153 6.151 6.16 6.16 0 006.153 6.154 6.16 6.16 0 006.153-6.154 6.159 6.159 0 00-6.153-6.151zM35.171 4.44a.99.99 0 01-.695-.287.993.993 0 01-.288-.696.988.988 0 01.983-.984.988.988 0 01.982.984.995.995 0 01-.288.696.99.99 0 01-.694.287zm-4.429-1.291a23.359 23.359 0 00-4.617-.459c-12.784 0-23.184 10.4-23.184 23.183 0 5.162 1.736 10.2 4.9 14.256a4.088 4.088 0 011.981-.507c1.102 0 2.139.43 2.918 1.208a4.104 4.104 0 011.208 2.918 4.095 4.095 0 01-1.208 2.917 4.098 4.098 0 01-2.918 1.21 4.096 4.096 0 01-2.917-1.21 4.096 4.096 0 01-1.209-2.917c0-.826.242-1.616.692-2.287A25.202 25.202 0 01.976 25.873c0-6.716 2.616-13.032 7.366-17.782S19.407.725 26.125.725c1.685 0 3.369.168 5.006.498a.983.983 0 11-.389 1.926zM8.294 45.276c.409.409.951.634 1.528.634.577 0 1.12-.225 1.528-.634.409-.408.634-.95.634-1.528 0-.578-.225-1.12-.634-1.528a2.147 2.147 0 00-1.528-.632c-.577 0-1.12.224-1.528.632-.408.408-.633.95-.633 1.528 0 .578.225 1.12.633 1.528zm8.828 2.049a.99.99 0 01.695.288.995.995 0 01.288.695.984.984 0 01-1.965 0 .987.987 0 01.982-.983z"/></svg>