<svg xmlns="http://www.w3.org/2000/svg" width="42" height="42"><path fill-rule="evenodd" fill="#1B1437" d="M41.19 41.169H16.381a.82.82 0 01-.82-.821v-8.454a.82.82 0 01.82-.82H41.19a.82.82 0 01.821.82v8.454a.822.822 0 01-.821.821zm-.821-8.454H17.202v6.813h23.167v-6.813zm-20.991 3.092a.754.754 0 01.076-.14.79.79 0 01.368-.303 1.06 1.06 0 01.154-.049.866.866 0 01.321 0c.052.013.104.028.153.049a.8.8 0 01.444.443.83.83 0 01.047.475.82.82 0 01-.491.596.757.757 0 01-.313.064.824.824 0 01-.806-.981.942.942 0 01.047-.154zm3.87-.507H37.03a.821.821 0 010 1.642H23.248a.82.82 0 110-1.642zm17.942-5.392H28.576a.82.82 0 01-.821-.819V12.903c0-.453.368-.821.821-.821H41.19c.453 0 .821.368.821.821v16.186a.82.82 0 01-.821.819zm-.821-16.184H29.397v14.543h10.972V13.724zm-9.819 11.74a.968.968 0 01.075-.142.808.808 0 01.522-.348.827.827 0 01.919.49.856.856 0 010 .629.873.873 0 01-.178.266.829.829 0 01-.894.177.877.877 0 01-.267-.177.819.819 0 01-.177-.895zm3.869-.506h4.039a.82.82 0 110 1.641h-4.039a.82.82 0 110-1.641zm4.039-1.653h-7.15a.82.82 0 110-1.641h7.15a.82.82 0 110 1.641zm0-3.294h-7.15a.82.82 0 110-1.641h7.15a.82.82 0 110 1.641zm0-3.293h-7.15a.822.822 0 010-1.643h7.15a.822.822 0 010 1.643zm2.732-5.805H.81a.822.822 0 01-.821-.822V1.649A.82.82 0 01.81.829h40.38a.82.82 0 01.821.82v8.442a.822.822 0 01-.821.822zm-.821-8.442H1.631v6.8h38.738v-6.8zM8.426 6.536h17.057a.82.82 0 110 1.641H8.426a.82.82 0 110-1.641zm19.411.507a.877.877 0 01.177-.268.837.837 0 01.741-.223.853.853 0 01.42.223.805.805 0 01.224.422.832.832 0 01-.349.842.763.763 0 01-.141.075.79.79 0 01-.475.047.71.71 0 01-.153-.047.771.771 0 01-.267-.176.877.877 0 01-.224-.421.79.79 0 010-.32.807.807 0 01.047-.154zm9.52-3.342c.495.496.768 1.154.768 1.855 0 .417-.097.818-.28 1.18l.67.67a.822.822 0 01-1.161 1.161l-.67-.67a2.623 2.623 0 01-3.035-4.196 2.625 2.625 0 013.708 0zM34.81 6.249a.978.978 0 001.387 0 .975.975 0 00.287-.693.976.976 0 00-.981-.981.978.978 0 00-.98.981c0 .261.102.508.287.693zM.907 12.082h24.92a.82.82 0 01.821.821v16.186a.82.82 0 01-.821.819H.907a.82.82 0 01-.821-.819V12.903c0-.453.368-.821.821-.821zm22.959 16.185l-3.337-4.449h-5.154l-.576.767h2.749a.822.822 0 010 1.642h-3.98l-1.53 2.04h11.828zm-4.568-6.09l-1.346-1.795-1.346 1.795h2.692zm-9.312 6.09l1.123-1.498-3.398-3.933-4.691 5.431h6.966zm-8.258-1.015l5.362-6.209a.82.82 0 011.243 0l3.784 4.383 5.178-6.904a.822.822 0 011.314 0l6.398 8.53V13.724H1.728v13.528zm9.558-6.782a2.905 2.905 0 01-2.901-2.902c0-1.6 1.301-2.902 2.901-2.902 1.6 0 2.902 1.302 2.902 2.902s-1.302 2.902-2.902 2.902zm0-4.162c-.694 0-1.26.565-1.26 1.261a1.26 1.26 0 101.26-1.261zM.907 31.074h12.614a.82.82 0 01.82.82v8.454a.82.82 0 01-.82.821H.907a.822.822 0 01-.821-.821v-8.454a.82.82 0 01.821-.82zm.821 8.454H12.7v-6.813H1.728v6.813z"/></svg>